# xmcd
#
# Track frame offsets:
# 150
# 11168
# 33559
# 65665
# 85605
# 113168
# 128447
# 142665
# 186412
# 196586
# 211049
#
# Disc length: 3093 seconds
#
#
# Revision: 0
# Processed by: cddbd v1.5PL3 Copyright (c) Steve Scherf et al.
# Submitted via: FreeRIP 2.70 
#
DISCID=8a0c130b
DTITLE=12th and Vine - Satisfied
DYEAR=2004
DGENRE=Blues
TTITLE0=Shocked Me
TTITLE1=Not Resisting
TTITLE2=73 (Set Me Free)
TTITLE3=Walk In, Walk Out
TTITLE4=Her
TTITLE5=Steal Away
TTITLE6=Tonight
TTITLE7=Bitter
TTITLE8=Mr. Floyds Blues
TTITLE9=Work
TTITLE10=Strawberry Jam
EXTD=
EXTT0=
EXTT1=
EXTT2=
EXTT3=
EXTT4=
EXTT5=
EXTT6=
EXTT7=
EXTT8=
EXTT9=
EXTT10=
PLAYORDER=
